<svg xmlns="http://www.w3.org/2000/svg" viewBox="0 0 800 520" role="img" aria-labelledby="title desc">
  <title id="title">킹스베리 딸기 이미지</title>
  <desc id="desc">큰 과형의 킹스베리를 표현한 일러스트</desc>
  <rect width="800" height="520" fill="#fff5f6"/>
  <ellipse cx="400" cy="430" rx="250" ry="60" fill="#f3d0d7"/>
  <path d="M360 135c-47 12-109 67-127 145-15 64 5 150 49 208 31 42 78 64 118 64s87-22 119-64c43-58 63-144 48-208-18-78-80-133-126-145-13-4-68-4-81 0Z" fill="#d92a45"/>
  <path d="M399 94c26-38 79-62 131-57-28 14-51 33-69 57 31-9 65-6 98 8-39 5-72 19-102 42l-58-3-58 3c-29-23-62-37-101-42 33-14 67-17 97-8-17-24-40-43-68-57 52-5 105 19 130 57Z" fill="#3d8f46"/>
  <path d="M343 180c-36 45-53 121-44 190 5 41 18 78 35 110-20-10-39-25-55-47-43-58-63-144-48-208 14-62 55-111 93-133 3 31 9 60 19 88Z" fill="#f26073" opacity=".45"/>
  <g fill="#ffd56e">
    <circle cx="320" cy="240" r="7"/><circle cx="396" cy="224" r="7"/><circle cx="472" cy="246" r="7"/>
    <circle cx="303" cy="318" r="7"/><circle cx="381" cy="299" r="7"/><circle cx="466" cy="322" r="7"/>
    <circle cx="338" cy="392" r="7"/><circle cx="427" cy="389" r="7"/><circle cx="391" cy="467" r="7"/>
  </g>
</svg>
