<svg xmlns="http://www.w3.org/2000/svg" viewBox="0 0 800 520" role="img" aria-labelledby="title desc">
  <title id="title">금실 딸기 이미지</title>
  <desc id="desc">밝고 산뜻한 인상의 금실 딸기를 표현한 일러스트</desc>
  <rect width="800" height="520" fill="#fffaf4"/>
  <ellipse cx="400" cy="410" rx="230" ry="58" fill="#f5ddd0"/>
  <path d="M365 145c-35 8-91 49-112 113-17 53-8 121 24 180 29 54 79 83 123 83s95-29 123-83c32-59 41-127 24-180-21-64-77-105-112-113-13-3-57-3-70 0Z" fill="#ff5d52"/>
  <path d="M400 108c26-34 72-55 119-49-23 12-43 29-60 49 28-7 59-3 87 12-35 3-67 16-97 39l-49-2-49 2c-31-23-62-36-97-39 28-15 59-19 87-12-18-20-37-37-60-49 47-6 93 15 119 49Z" fill="#5ca84f"/>
  <path d="M298 250c10 43 36 98 98 143 55 39 109 47 145 45-32 38-76 61-118 61-44 0-93-29-122-83-29-53-39-114-27-166 6-25 14-47 24-64Z" fill="#ff8b7f" opacity=".35"/>
  <g fill="#ffe08a">
    <circle cx="335" cy="238" r="6"/><circle cx="405" cy="223" r="6"/><circle cx="468" cy="250" r="6"/>
    <circle cx="320" cy="302" r="6"/><circle cx="389" cy="291" r="6"/><circle cx="456" cy="321" r="6"/>
    <circle cx="345" cy="374" r="6"/><circle cx="423" cy="366" r="6"/><circle cx="391" cy="431" r="6"/>
  </g>
</svg>
