<svg xmlns="http://www.w3.org/2000/svg" viewBox="0 0 800 520" role="img" aria-labelledby="title desc">
  <title id="title">죽향 딸기 이미지</title>
  <desc id="desc">향이 깊은 죽향 딸기를 표현한 일러스트</desc>
  <rect width="800" height="520" fill="#fff6fb"/>
  <ellipse cx="400" cy="414" rx="230" ry="58" fill="#eed2df"/>
  <path d="M366 143c-37 9-94 54-114 120-16 50-4 118 31 177 30 51 78 79 117 79 40 0 88-28 118-79 34-59 46-127 30-177-20-66-76-111-114-120-13-3-55-3-68 0Z" fill="#c81f4b"/>
  <path d="M400 104c24-34 69-58 116-54-24 13-45 30-63 52 27-7 58-4 87 11-34 4-65 16-93 38l-47-2-48 2c-28-22-59-34-93-38 29-15 60-18 87-11-18-22-39-39-63-52 47-4 92 20 117 54Z" fill="#4d9750"/>
  <path d="M445 176c22 29 40 74 44 128 4 57-10 108-27 145 31-18 56-48 74-79 34-59 46-127 30-177-15-48-48-86-82-106-10 35-23 65-39 89Z" fill="#ef5f88" opacity=".4"/>
  <g fill="#ffd97e">
    <circle cx="338" cy="232" r="6"/><circle cx="409" cy="220" r="6"/><circle cx="470" cy="252" r="6"/>
    <circle cx="320" cy="302" r="6"/><circle cx="387" cy="288" r="6"/><circle cx="456" cy="322" r="6"/>
    <circle cx="350" cy="372" r="6"/><circle cx="423" cy="366" r="6"/><circle cx="390" cy="432" r="6"/>
  </g>
</svg>
