<svg xmlns="http://www.w3.org/2000/svg" viewBox="0 0 800 520" role="img" aria-labelledby="title desc">
  <title id="title">설향 딸기 이미지</title>
  <desc id="desc">부드러운 인상의 설향 딸기를 표현한 일러스트</desc>
  <rect width="800" height="520" fill="#fff7f7"/>
  <ellipse cx="400" cy="410" rx="230" ry="58" fill="#f4ced4"/>
  <path d="M365 138c-40 10-98 57-117 124-12 42 1 113 37 165 28 42 76 66 115 66 39 0 88-24 116-66 35-52 48-123 36-165-19-67-77-114-117-124-13-3-56-3-70 0Z" fill="#e23b4e"/>
  <path d="M402 97c22-37 71-59 120-52-26 12-47 28-66 53 28-9 60-8 91 5-35 6-64 21-90 45l-55-3-56 3c-25-24-55-39-89-45 30-13 62-14 89-5-18-25-39-41-64-53 49-7 97 15 120 52Z" fill="#3f8f43"/>
  <path d="M374 170c-17 16-38 47-45 89-6 38-1 88 19 128 15 31 32 49 52 56-8-29-11-64-9-104 4-77 23-137 53-181-22-4-49 1-70 12Z" fill="#f16474" opacity=".55"/>
  <g fill="#ffd97a">
    <circle cx="336" cy="233" r="6"/><circle cx="420" cy="226" r="6"/><circle cx="485" cy="260" r="6"/>
    <circle cx="317" cy="301" r="6"/><circle cx="382" cy="283" r="6"/><circle cx="452" cy="319" r="6"/>
    <circle cx="350" cy="366" r="6"/><circle cx="430" cy="362" r="6"/><circle cx="395" cy="416" r="6"/>
  </g>
</svg>
